# xmcd CD database file generated by OrangeCD 5.2
#
# Track frame offsets:
#	150
#	14705
#	31225
#	48345
#	61232
#	74185
#	89177
#	101117
#	111105
#	122342
#	137850
#	151267
#	162530
#	176577
#	189672
#	205607
#	221525
#	242167
#	259197
#
# Disc length: 3604 seconds
#
# Revision: 1
# Processed by: cddbd v1.5.1PL0 Copyright (c) Steve Scherf et al.
# Submitted via: OrangeCD 5.2
#
DISCID=1e0e1213
DTITLE=The Moody Brothers - The Line Dance Album
DYEAR=1997
DGENRE=Country
TTITLE0=Line Dancing
TTITLE1=Redneck Girl
TTITLE2=Brown Eyed Girl
TTITLE3=Hey Goodlooking
TTITLE4=Walking After Midnight
TTITLE5=Let Me Dance With You
TTITLE6=Start With The Talking
TTITLE7=I Tried At First Not To (Fall In Love With You)
TTITLE8=If You Don't Think I'm Leaving
TTITLE9=Zydeco Ball
TTITLE10=When Daddy Played The Fiddle
TTITLE11=Cotton Eyed Joe
TTITLE12=Guitar Boogie
TTITLE13=You Left The Water Running
TTITLE14=Abilene
TTITLE15=Gentle On My Mind
TTITLE16=Orange Blossom Guitars
TTITLE17=Midnight Flyer
TTITLE18=Showboat Gambler
EXTD=YEAR: 1997
EXTT0=
EXTT1=
EXTT2=
EXTT3=
EXTT4=
EXTT5=
EXTT6=
EXTT7=
EXTT8=
EXTT9=
EXTT10=
EXTT11=
EXTT12=
EXTT13=
EXTT14=
EXTT15=
EXTT16=
EXTT17=
EXTT18=
PLAYORDER=
